<?xml version="1.0" encoding="utf-8"?>
<!-- Generator: Adobe Illustrator 22.0.0, SVG Export Plug-In . SVG Version: 6.00 Build 0)  -->
<svg version="1.1" id="Capa_1" xmlns="http://www.w3.org/2000/svg" xmlns:xlink="http://www.w3.org/1999/xlink" x="0px" y="0px"
	 viewBox="0 0 480 480" style="enable-background:new 0 0 480 480;" xml:space="preserve">
<style type="text/css">
	.st0{fill:#2573B7;}
	.st1{fill:#FFFFFF;}
</style>
<g>
	<g>
		<g>
			<path class="st0" d="M240,0.7C108.1,0.7,0.7,108.1,0.7,240c0,57.8,20.6,110.8,54.8,152.2c0.1,0.1,0.1,0.3,0.2,0.4
				c24.7,29.8,55.8,52.7,90.3,67.4c0.4,0.2,0.8,0.4,1.2,0.5c2.8,1.2,5.6,2.3,8.5,3.3c1.1,0.4,2.2,0.9,3.4,1.3
				c2.4,0.9,4.9,1.7,7.4,2.5c1.6,0.5,3.2,1,4.8,1.5c2.2,0.7,4.4,1.3,6.6,1.9c1.9,0.5,3.9,1,5.9,1.5c2,0.5,4,1,6,1.4
				c2.2,0.5,4.5,0.9,6.8,1.3c1.8,0.3,3.6,0.7,5.5,1c2.5,0.4,5,0.7,7.6,1.1c1.6,0.2,3.3,0.4,4.9,0.6c2.9,0.3,5.8,0.5,8.7,0.7
				c1.3,0.1,2.7,0.2,4,0.3c4.2,0.2,8.5,0.4,12.8,0.4s8.6-0.1,12.8-0.4c1.4-0.1,2.7-0.2,4-0.3c2.9-0.2,5.8-0.4,8.7-0.7
				c1.6-0.2,3.3-0.4,4.9-0.6c2.5-0.3,5.1-0.6,7.6-1.1c1.8-0.3,3.6-0.6,5.5-1c2.3-0.4,4.5-0.8,6.8-1.3c2-0.4,4-0.9,6-1.4
				c2-0.5,3.9-1,5.9-1.5c2.2-0.6,4.4-1.2,6.6-1.9c1.6-0.5,3.2-1,4.8-1.5c2.5-0.8,4.9-1.6,7.4-2.5c1.1-0.4,2.2-0.8,3.4-1.3
				c2.8-1.1,5.7-2.2,8.5-3.3c0.4-0.2,0.8-0.4,1.2-0.5c34.6-14.8,65.6-37.6,90.3-67.4c0.1-0.1,0.1-0.3,0.2-0.4
				c34.2-41.4,54.8-94.5,54.8-152.3C479.3,108.1,371.9,0.7,240,0.7z M337,441.1c-0.1,0.1-0.2,0.1-0.4,0.2c-2.8,1.4-5.7,2.7-8.7,3.9
				c-0.7,0.3-1.3,0.6-2,0.8c-2.6,1.1-5.1,2.1-7.7,3.1c-1.1,0.4-2.2,0.8-3.3,1.2c-2.3,0.8-4.6,1.6-7,2.4c-1.5,0.5-2.9,0.9-4.4,1.3
				c-2.1,0.6-4.2,1.2-6.3,1.8c-1.8,0.5-3.6,0.9-5.3,1.3c-1.9,0.4-3.7,0.9-5.6,1.3c-2.1,0.4-4.1,0.8-6.2,1.2
				c-1.7,0.3-3.4,0.6-5.1,0.9c-2.3,0.4-4.7,0.7-7.1,1c-1.5,0.2-3,0.4-4.5,0.6c-2.7,0.3-5.4,0.5-8.1,0.7c-1.2,0.1-2.4,0.2-3.6,0.3
				c-3.9,0.2-7.9,0.3-11.9,0.3s-7.9-0.1-11.9-0.3c-1.2-0.1-2.4-0.2-3.6-0.3c-2.7-0.2-5.4-0.4-8.1-0.7c-1.5-0.2-3-0.4-4.5-0.6
				c-2.4-0.3-4.7-0.6-7.1-1c-1.7-0.3-3.4-0.6-5.1-0.9c-2.1-0.4-4.2-0.8-6.2-1.2c-1.9-0.4-3.8-0.9-5.6-1.3c-1.8-0.4-3.6-0.9-5.3-1.3
				c-2.1-0.6-4.2-1.2-6.3-1.8c-1.5-0.4-2.9-0.9-4.4-1.3c-2.3-0.7-4.7-1.5-7-2.4c-1.1-0.4-2.2-0.8-3.3-1.2c-2.6-1-5.2-2-7.7-3.1
				c-0.7-0.3-1.3-0.6-2-0.8c-2.9-1.3-5.8-2.6-8.7-3.9c-0.1-0.1-0.2-0.1-0.4-0.2c-27.8-13.5-52.4-32.6-72.4-55.8
				c15.4-56.8,59.1-102.5,115.2-120.7c1.1,0.7,2.3,1.3,3.4,1.9c0.7,0.4,1.3,0.8,2,1.1c2.4,1.3,4.8,2.4,7.2,3.5
				c1.9,0.8,3.8,1.5,5.8,2.2c0.4,0.1,0.8,0.3,1.1,0.4c10.8,3.8,22.4,6,34.5,6s23.7-2.2,34.5-6c0.4-0.1,0.8-0.3,1.1-0.4
				c1.9-0.7,3.9-1.4,5.8-2.2c2.5-1.1,4.9-2.2,7.2-3.5c0.7-0.4,1.3-0.8,2-1.1c1.1-0.6,2.3-1.2,3.4-1.9c56.1,18.2,99.8,64,115.2,120.7
				C389.4,408.6,364.8,427.7,337,441.1z M152.3,176.2c0-48.4,39.4-87.7,87.7-87.7s87.7,39.4,87.7,87.7c0,30.8-16,57.8-40,73.5
				c-3.1,2-6.4,3.9-9.8,5.5c-0.4,0.2-0.8,0.4-1.2,0.6c-23.1,10.5-50.4,10.5-73.5,0c-0.4-0.2-0.8-0.4-1.2-0.6
				c-3.4-1.6-6.6-3.4-9.8-5.5C168.2,234,152.3,207,152.3,176.2z M421.3,370.2c-18.1-53.4-59.3-96.5-112-117
				c21.1-19,34.4-46.4,34.4-77c0-57.2-46.5-103.7-103.7-103.7S136.3,119,136.3,176.2c0,30.5,13.4,58,34.4,77
				c-52.7,20.5-94,63.6-112,117c-26.4-36.7-42-81.6-42-130.2C16.7,116.9,116.9,16.7,240,16.7S463.3,116.9,463.3,240
				C463.3,288.6,447.7,333.5,421.3,370.2z"/>
		</g>
	</g>
	<g>
		<circle class="st0" cx="397.2" cy="397.2" r="82.1"/>
		<rect x="386.3" y="347.1" class="st1" width="21.8" height="100.1"/>
		
			<rect x="386.3" y="347.1" transform="matrix(-1.836970e-16 1 -1 -1.836970e-16 794.3911 9.663381e-13)" class="st1" width="21.8" height="100.1"/>
	</g>
</g>
</svg>
